<?xml version="1.0" encoding="utf-8"?>
<!-- Generator: Adobe Illustrator 22.1.0, SVG Export Plug-In . SVG Version: 6.00 Build 0)  -->
<svg version="1.1" id="Layer_1" xmlns="http://www.w3.org/2000/svg" xmlns:xlink="http://www.w3.org/1999/xlink" x="0px" y="0px"
	 viewBox="0 0 498.8 512" style="enable-background:new 0 0 498.8 512;" xml:space="preserve">
<style type="text/css">
	.st0{fill:#FFFFFF;}
</style>
<path class="st0" d="M253,0L0,144v51.8h38.9v178.9h421.9V195.8h39.5v-50.6L253,0z M412.3,329.2h-322V149.7L253,54.2l159.3,95.5
	V329.2z"/>
<polygon class="st0" points="166.6,218.1 166.6,173.8 334.9,173.8 334.9,218.1 "/>
<polygon class="st0" points="166.6,239.7 334.9,239.7 334.9,283.7 166.6,283.7 "/>
<path class="st0" d="M287.6,455.7h-29.5V512h28.6c23.5,0,36.7-5.1,36.7-27.1C323.5,462,308.7,455.7,287.6,455.7z M286.4,499.7h-12.6
	v-31.9v-0.3h14.2c9.9,0,19,5.7,19,17.2C306.9,497.5,298.5,499.7,286.4,499.7z"/>
<path class="st0" d="M460.2,488.5c10.5-1.5,15.4-5.7,15.4-15.1c0-12.6-6.6-17.8-22-17.8h-41V512v0h16v-23.5h14.8l16.3,23.5h16.9
	L460.2,488.5z M450.6,476.2H428v-8.4h23.2c6.3,0,9.3,0.9,9.3,4.2C460.5,476.2,458.4,476.2,450.6,476.2z"/>
<polygon class="st0" points="173.2,455.7 173.2,512 187.9,512 187.9,477.7 217.4,512 235.2,512 235.2,455.7 220.5,455.7 
	220.5,490.6 190.9,455.7 "/>
<polygon class="st0" points="28,455.7 28,512 83.7,512 83.7,500 43.4,499 43.4,455.7 "/>
<polygon class="st0" points="99.4,512 153.9,512 153.9,500 115.7,500 115.7,487.6 147.6,487.6 147.6,476.5 115.7,476.5 115.7,467.7 
	153.9,467.7 153.9,455.7 99.4,455.7 "/>
<polygon class="st0" points="340.9,455.7 340.9,512 394.5,511.1 394.5,500 356.6,500 356.6,487.6 388.8,487.6 388.8,476.5 
	356.6,476.5 356.6,467.7 394.5,467.7 394.5,455.7 "/>
<path class="st0" d="M164.4,391.2h-12l-14.2,50.6h10.5l3-11.4h12.6l3,11.4h11.1L164.4,391.2z M153.9,421.9l4.2-19.9l4.8,19.9H153.9z
	"/>
<path class="st0" d="M91,434.6c2.1-4.2,2.7-7.2,2.7-13.6v-10.5c0-12.3-2.7-20.8-16.9-20.8c-12.6,0-16.9,6.9-16.9,19.9v13.6
	c0,17.2,9.6,18.1,38.9,17.8l0.6-3.6L91,434.6z M83.1,423.2c0,9.3-0.6,11.4-6.3,11.4c-4.8,0-6.3-2.7-6.3-12v-12
	c0-9.3,0.6-12,6.9-12.3c5.1,0,5.7,1.5,5.7,11.4V423.2z"/>
<path class="st0" d="M347.3,428.3c0,7.8,4.8,14.2,16.3,14.2c9,0,17.5-6.3,17.5-14.2c0-12-22.6-17.8-22.6-25.6c0-2.7,2.7-4.2,5.7-4.2
	c4.2,0,6.3,2.7,8.4,7.2l6.9-2.7c-0.6-7.2-5.7-13-16.3-13c-8.4,0-15.4,4.2-15.4,13c0,14.2,22.6,17.8,22.6,27.1c0,3.6-2.1,5.1-6.3,5.1
	c-4.2,0-6.9-2.7-8.4-7.8L347.3,428.3L347.3,428.3z"/>
<path class="st0" d="M287.6,389.7c-10.5,0-16.9,5.7-16.9,19.3v16.3c0,12.3,3.6,17.2,16.9,17.2c13.3,0,16.9-5.7,16.9-19.3v-15.7
	C304.5,394.8,300.9,389.7,287.6,389.7z M293.9,423.2c0,8.7-2.1,11.4-6.3,11.4c-5.7,0-6.3-3.3-6.3-10.5v-15.7
	c0-6.6,0.9-10.8,6.3-10.8c5.7,0,6.3,4.8,6.3,10.5V423.2z"/>
<path class="st0" d="M441.5,423.2c0,15.1,4.2,19.3,18.4,19.3c10.8,0,14.2-5.1,14.2-10.5v-16.3h-14.8v7.8h4.8v5.7
	c0,4.2-1.5,6.3-4.8,6.3c-6.9,0-7.8-5.1-7.8-12V412c0-8.4,0.6-14.2,7.8-14.2c4.8,0,7.8,3.6,8.4,8.4l6.9-2.7
	c-0.6-8.4-6.3-13.6-16.3-13.6c-14.2,0-16.9,7.8-16.9,18.7V423.2L441.5,423.2z"/>
<path class="st0" d="M309,391.2v29.2c0,17.2,3,22.6,17.8,22.6c11.1,0,15.4-6.3,15.4-21.1v-30.7h-9.9v29.2c0,11.4-0.6,14.2-6.3,14.2
	s-6.3-4.2-6.3-15.1v-28.6H309V391.2z"/>
<polygon class="st0" points="403.3,391.2 403.3,441.8 411.7,441.8 411.7,407.5 423.8,441.8 436.4,441.8 436.4,391.2 428,391.2 
	428,422.6 416.5,391.2 "/>
<path class="st0" d="M103.9,391.2v30.7c0,14.2,1.5,20.8,15.4,20.8c16.3,0,16.9-7.8,16.9-22v-29.2h-9.9v29.8c0,9.9-1.5,13-6.3,13
	c-5.7,0-6.3-2.7-6.3-14.2v-28.6h-9.6V391.2z"/>
<polygon class="st0" points="231.9,391.2 231.9,441.8 241.8,441.8 241.8,418.9 253.9,418.9 253.9,441.8 263.5,441.8 263.5,391.2 
	253.9,391.2 253.9,410.5 241.8,410.5 241.8,391.2 "/>
<polygon class="st0" points="27.1,391.2 27.1,441.8 52.7,441.8 52.7,434 37,434 37,419.8 51.2,419.8 51.2,412.6 37,412.6 37,399.1 
	52.7,399.1 52.7,391.2 "/>
<polygon class="st0" points="183.1,391.2 183.1,441.8 206.3,441.8 206.3,434 191.5,434 191.5,391.2 "/>
<polygon class="st0" points="386.4,391.2 386.4,441.8 395.4,441.8 395.4,391.2 "/>
</svg>
